<svg width="120" height="32" viewBox="0 0 120 32" fill="none" xmlns="http://www.w3.org/2000/svg">
<g>
<path d="M8 0C10.6754 3.67031 14.1106 7.85437 18.4416 12.1784H-1C3.2047 7.67446 6.084 3.35245 8.0036 0H8Z" fill="#181818"/>
<path d="M-15.7637 24.0583C-12.3405 22.3791 -7.8435 19.7443 -3.3305 15.7141C-2.9326 15.3583 -2.5427 14.9985 -2.1688 14.6406H15.2193C15.2193 14.6406 2.6261 32.6303 -4.2643 32.6843C-9.949 32.7303 -12.3305 26.1993 -15.7637 24.0563L-15.7637 24.0583Z" fill="#181818"/>
<path d="M9.1088 47.9992C7.0113 45.1205 4.3099 41.834 0.8886 38.4336H16.877C13.4898 41.884 10.9604 45.2145 9.1108 47.9992H9.1088Z" fill="#181818"/>
<path d="M19.4111 35.4629C19.2231 35.6309 19.0391 35.8008 18.8572 35.9687H0.1894C0.1894 35.9687 12.9905 17.7451 19.9729 17.7071C25.7996 17.6771 28.2131 24.3641 31.7203 26.553C28.1531 28.5781 23.8101 31.4588 19.4091 35.4629H19.4111Z" fill="#181818"/>
</g>
<text x="40" y="20" font-family="Arial, sans-serif" font-size="16" font-weight="bold" fill="#181818">ZELF</text>
</svg>
